<?xml version="1.0" encoding="utf-8"?>
<!-- Generator: Adobe Illustrator 24.0.0, SVG Export Plug-In . SVG Version: 6.00 Build 0)  -->
<!DOCTYPE svg PUBLIC "-//W3C//DTD SVG 1.1//EN" "http://www.w3.org/Graphics/SVG/1.1/DTD/svg11.dtd" [
	<!ENTITY ns_extend "http://ns.adobe.com/Extensibility/1.0/">
	<!ENTITY ns_ai "http://ns.adobe.com/AdobeIllustrator/10.0/">
	<!ENTITY ns_graphs "http://ns.adobe.com/Graphs/1.0/">
	<!ENTITY ns_vars "http://ns.adobe.com/Variables/1.0/">
	<!ENTITY ns_imrep "http://ns.adobe.com/ImageReplacement/1.0/">
	<!ENTITY ns_sfw "http://ns.adobe.com/SaveForWeb/1.0/">
	<!ENTITY ns_custom "http://ns.adobe.com/GenericCustomNamespace/1.0/">
	<!ENTITY ns_adobe_xpath "http://ns.adobe.com/XPath/1.0/">
]>
<svg version="1.1" id="hand" xmlns:x="&ns_extend;" xmlns:i="&ns_ai;" xmlns:graph="&ns_graphs;"
	 xmlns="http://www.w3.org/2000/svg" xmlns:xlink="http://www.w3.org/1999/xlink" x="0px" y="0px" viewBox="0 0 88.1 107.6"
	 style="enable-background:new 0 0 88.1 107.6;" xml:space="preserve">
<style type="text/css">
	.st0{fill:#FEFEFE;}
	.st1{fill:#E9BCA0;}
	.st2{fill:#C48F6D;}
	.st3{fill:#DCAE90;}
	.st4{fill:#DCB295;}
	.st5{fill:#F8D2B9;}
	.st6{fill:#D6A587;}
	.st7{fill:#F0C5A9;}
	.st8{fill:#DCAD8F;}
	.st9{fill:#B2754D;}
	.st10{fill:#E4B699;}
	.st11{fill:#B3774F;}
	.st12{fill:#AE7046;}
	.st13{fill:#C38F6D;}
	.st14{fill:#D2A68A;}
	.st15{fill:#D19F80;}
	.st16{fill:#C89474;}
	.st17{fill:#B57449;}
	.st18{fill:#CC9B7D;}
	.st19{fill:#F9CFB4;}
	.st20{fill:#FAD2B9;}
	.st21{fill:#FDDFC7;}
	.st22{fill:#F5CAAF;}
	.st23{fill:#EBBFA2;}
	.st24{fill:#FCDBC2;}
	.st25{fill:#E7BA9E;}
	.st26{fill:#FBD3B9;}
	.st27{fill:#FCD6BD;}
	.st28{fill:#F2C7AB;}
	.st29{fill:#FDE2CA;}
</style>
<metadata>
	<sfw  xmlns="&ns_sfw;">
		<slices></slices>
		<sliceSourceBounds  bottomLeftOrigin="true" height="116" width="89" x="147.5" y="-445"></sliceSourceBounds>
	</sfw>
</metadata>
<g>
	<path class="st0" d="M-0.9-2.1c29.7,0,59.3,0,89,0c0,38.7,0,77.3,0,116c-29.7,0-59.3,0-89,0C-0.9,75.3-0.9,36.6-0.9-2.1z M83.9,9
		C83.9,8.4,84,7.7,84,7c-6-8.9-14.2-9.3-20.5-1c-0.7,0.7-1.3,1.4-2,2.1c-1.5,2-3.1,3.9-4.6,5.9c-0.8,3.1-2.2,6.3-2.2,9.4
		c0.1,4.6-0.7,8.5-4.2,11.5c-4.7,2.5-9,2.4-13.9-0.2c-3.5-1.8-7.8-2-11.7-2.9l0,0.1c-3.3-0.3-6.7-0.7-10-1l0.1,0
		c-0.7,0.4-1.3,0.7-2,1.1c-1,1-1.9,2-2.9,3c-0.3,2-0.7,4-1,6c0.3,2,0.5,3.9,0.8,5.9c-3.5,1.1-6.6,2.7-6.8,7.1
		c0.1,2.4,0.2,4.7,0.2,7.1c0,1.6-0.1,3.2-0.1,4.8L3,66l0.1,0.3c-0.3,0.5-0.7,1-1,1.5l0-0.1c-0.3,2.7-0.7,5.4-1,8.1
		c0.1,1,0.2,2,0.2,3c0.3,0.4,0.5,0.8,0.8,1.1c0,0.3,0.1,0.6,0.2,0.8C-0.2,88.8,0.4,94.6,5,97.1c4.8,2.6,10.2,4,15.3,6
		c1.1,0.7,2.2,1.3,3.4,2c6.7,0.8,13.3,1.7,20,2.5c6.1,0.3,12.3,1.1,17.8-2.6c7.6-2.3,14.5-5.7,18.8-12.9c2.9-5,7.2-9.6,5.9-16.2
		c-0.1-2-0.2-3.9-0.3-5.9c-0.1-1.1,0-2.4-0.4-3.4c-3.5-9.3-7-18.6-10.6-27.8c-0.3-1.9-0.5-3.9-0.8-5.8c1.3-3.8,2.4-7.7,4-11.4
		c1.2-2.8,2.9-5.4,4.4-8.1C83,11.9,83.5,10.5,83.9,9z"/>
	<path class="st1" d="M61.5,8.1c0.7-0.7,1.3-1.4,2-2.1c0.3,1.4,0.5,2.8,0.8,4.2c0.4,2,0.1,4.6,1.2,6c1.7,2.2,4.3,2.1,6.4-0.1
		C74,14,76.2,12,78.3,9.9c1.3-0.4,2.5-0.8,3.8-1.2L82.3,9c-0.1,0.9-0.2,1.8-0.2,2.8c-0.3,0.4-0.6,0.7-0.9,1.1c-0.7,0.7-1.3,1.3-2,2
		c-8.1,4-10.3,16.4-4.3,23.8c3.5,9.3,7.1,18.5,10.6,27.8c0.4,1,0.3,2.3,0.4,3.4c-0.3,2-0.5,4-0.8,6c0,0.7,0,1.3-0.1,2
		c-1.2,0.8-2.7,1.3-3.5,2.4c-6.1,9.3-15.5,13.4-25.3,16.5c-7.5,2.4-16.1,0.3-23.1,5.1c-0.1,0.1-0.3,0-0.5,0c0-1.6,0-3.3,0-4.9
		c0.9-0.8,1.8-1.6,2.6-2.3c-1-1.4-1.8-2.5-2.6-3.7c0-0.4,0-0.7,0-1.1c1,0,2,0,2.9,0c0.7,0.7,1.3,1.3,2,2c7.3,2,14.4,1.6,21.3-1.8
		c5-2.5,9.8-5.3,14.9-7.4c6.3-2.6,10.9-14,8.6-19.9c-3.4-8.6-8-16.7-12.1-25c-0.7-2-1.3-4-2-6c-1.3-1.9-2.6-3.9-3.9-5.8
		c-1.4,1.3-2.8,2.7-4.3,4c-0.5,0.4-1.1,0.5-1.7,0.8C59.5,23.3,60.5,15.7,61.5,8.1z"/>
	<path class="st2" d="M80.3,92.1C76,99.3,69.1,102.7,61.5,105c-3.1,0.1-6.3-0.2-9.4,0.3c-2.9,0.4-5.6,1.5-8.4,2.3
		c-6.7-0.8-13.3-1.7-20-2.5c0.4-0.7,0.7-1.5,1.1-2.2c2,0.1,3.9,0.2,5.9,0.2c2.3,0.5,4.7,1.6,7,1.5c4.1-0.2,8.1-1.1,12.1-1.7
		c10.7-1.7,21.5-3.3,29.3-12.1C79.6,91.3,79.9,91.7,80.3,92.1z"/>
	<path class="st3" d="M3.1,53.9c0.2-4.4,3.3-5.9,6.8-7.1c5,2.8,10,5.5,15,8.3c-1.3,0.3-2.7,0.5-4,0.8c-2.9-2.5-5.8-3.1-9.7,0.4
		c3.9,2.8,7.3,5.2,10.5,7.8c1,0.9,1.5,2.5,2.2,3.8C16.2,64.4,8.2,61.4,3.1,53.9z"/>
	<path class="st4" d="M61.5,8.1c-1,7.6-2,15.3-3,22.9c-0.3,1-0.7,2-1,3c-2,2-4,4-5.9,6c-5.6-0.7-11.2-1.3-16.8-2
		c-1,0-1.9-0.1-2.9-0.1c-0.7-0.7-1.3-1.3-2-2c-1.6-1.4-3.3-2.7-4.9-4.1c3.9,0.9,8.2,1.1,11.7,2.9c4.9,2.5,9.3,2.6,13.9,0.2
		c3,0.1,5.4-2,6-5.1c0.8-4.4,1.8-8.9,2.4-13.3c0.1-0.7-1.3-1.7-2.1-2.5C58.4,12,59.9,10,61.5,8.1z"/>
	<path class="st5" d="M78.3,9.9C76.2,12,74,14,72,16.1c-2.2,2.2-4.7,2.2-6.4,0.1c-1.1-1.4-0.9-4-1.2-6C64,8.8,63.8,7.4,63.5,6
		C69.8-2.3,78-1.9,84,7c-0.6,0-1.2,0-1.8-0.1c-1.7-0.9-3.4-2.4-5.1-2.4c-2.4-0.1-5.2,0.4-7.1,1.7c-1.1,0.8-0.7,3.7-1,5.6
		c1.4-0.2,2.9-0.2,4.3-0.5C75,11,76.6,10.4,78.3,9.9z"/>
	<path class="st6" d="M9.1,40.9c0.3-2,0.7-4,1-6c1.6-0.2,3.3-0.4,5.4-0.7c1.9,7,6.6,11.4,13.3,13.8l0.4,0c0,0,0.4,0,0.4,0
		c0.4,0.7,0.7,1.3,1.1,2c0.7,1.9,1.3,3.9,2,5.8c-0.6,0-1.3,0-1.9,0c-0.9-0.2-1.8-0.5-2.8-0.7c-2.3-2.2-4.4-4.6-6.9-6.4
		C17.3,45.8,13.1,43.5,9.1,40.9z"/>
	<path class="st7" d="M28.8,48c-6.7-2.4-11.5-6.8-13.3-13.8c-2.1,0.3-3.7,0.5-5.4,0.7c1-1,1.9-2,2.9-3c0.7-0.4,1.3-0.7,2-1.1
		c0,0-0.1,0-0.1,0c3.3,0.3,6.7,0.7,10,1c0,0,0-0.1,0-0.1c1.6,1.4,3.3,2.7,4.9,4.1c0,0,0,0,0,0c-1.9,0.8-3.8,1.6-5.8,2.4
		c1.6,2.2,3.2,4.4,4.8,6.6C28.8,45.9,28.8,46.9,28.8,48z"/>
	<path class="st8" d="M24.8,102.9c-0.4,0.7-0.7,1.5-1.1,2.2c-1.1-0.7-2.2-1.3-3.4-2c-1.6-1.1-3.2-2.2-4.7-3.3
		c-3.5-2.6-7.1-5.2-10.6-7.9c-0.6-0.7-1.3-1.3-1.9-2c0.6-1.7,1.3-3.3,1.9-5c3.6,2.3,7.3,4.6,10.9,7c-1.2,0.2-2.4,0.3-3.6,0.5
		c-0.2,0.5-0.4,0.9-0.5,1.4c4,2.4,8,4.8,12,7.2C24.2,101.6,24.5,102.2,24.8,102.9z"/>
	<path class="st9" d="M1.2,78.9c-0.1-1-0.2-2-0.2-3c1.3,0.7,2.5,1.6,3.8,2.2c6,2.7,11.9,5.3,17.9,8c0,0,0,0,0,0
		c0.6,0.7,1.2,1.4,1.8,2.1c0.7,0.4,1.4,0.7,2.2,1.1c0.3,0.3,0.6,0.6,0.9,0.9c-0.9,1-1.9,2-2.8,3c-1-0.1-1.9-0.2-2.9-0.3
		c-5.6-3-11.2-6-16.8-9.1c-0.9-1-1.9-2-2.8-3c-0.1-0.3-0.2-0.5-0.2-0.8C1.8,79.7,1.5,79.3,1.2,78.9z"/>
	<path class="st6" d="M22.7,86c-6-2.7-12-5.3-17.9-8c-1.3-0.6-2.5-1.4-3.8-2.2c0.3-2.7,0.7-5.4,1-8.1c3.9,7.4,10.2,11.6,17.9,14.1
		c0.4,0,0.7,0,1.1,0C21.5,83.3,22.1,84.7,22.7,86z"/>
	<path class="st10" d="M19.9,81.9c-7.7-2.5-14-6.7-17.9-14.1c0,0,0,0.1,0,0.1c0.3-0.5,0.7-1,1-1.5C3.1,66.4,3,66,3,66
		s0.3-0.2,0.3-0.2c0.6,0,1.2,0.1,1.8,0.1c0.9,1.4,1.5,3.2,2.8,4c3.9,2.2,8,4,12,6C19.9,77.9,19.9,79.9,19.9,81.9z"/>
	<path class="st2" d="M3.1,53.9c5.1,7.5,13.1,10.5,20.8,14c0.9,0.7,1.9,1.4,2.8,2.1c1.3,1.6,2.5,3.2,4.2,5.3c-1.8,0.3-3,0.5-4.2,0.7
		c-1,0-2,0-2.9,0c0-0.4,0-0.7,0-1.1c-0.2-1.4,0.1-3.6-0.6-3.9C16.7,67.5,10,64.3,3.3,61C3.3,58.6,3.2,56.3,3.1,53.9z"/>
	<path class="st11" d="M9.1,40.9c4.1,2.5,8.2,4.9,12.1,7.7c2.5,1.8,4.6,4.3,6.9,6.4c-1,0-2.1,0.1-3.1,0.1c-5-2.8-10-5.5-15-8.3
		C9.6,44.9,9.3,42.9,9.1,40.9z"/>
	<path class="st12" d="M3.3,61C10,64.3,16.7,67.5,23.2,71c0.7,0.4,0.4,2.6,0.6,3.9c-6.3-3-12.5-6-18.8-9c-0.6,0-1.2-0.1-1.8-0.1
		C3.3,64.2,3.3,62.6,3.3,61z"/>
	<path class="st13" d="M2.2,80.9c0.9,1,1.9,2,2.8,3c0,0.4,0,0.7,0,1.1c-0.6,1.7-1.3,3.3-1.9,5c0.6,0.7,1.3,1.3,1.9,2
		c3.5,2.6,7.1,5.3,10.6,7.9c1.5,1.1,3.1,2.2,4.7,3.3c-5.1-1.9-10.5-3.4-15.3-6C0.4,94.6-0.2,88.8,2.2,80.9z"/>
	<path class="st14" d="M56.9,14c0.7,0.9,2.2,1.8,2.1,2.5c-0.6,4.5-1.6,8.9-2.4,13.3c-0.6,3.1-2.9,5.2-6,5.1c3.5-3.1,4.3-7,4.2-11.5
		C54.6,20.2,56.1,17.1,56.9,14z"/>
	<path class="st15" d="M75,38.7c-6.1-7.5-3.9-19.8,4.3-23.8c-0.8,1.7-1.9,3.4-2.4,5.2c-1.3,4.1-5.2,7.8-2.6,12.8
		C74.5,34.8,74.7,36.8,75,38.7z"/>
	<path class="st16" d="M74.2,32.9c-2.6-5,1.2-8.6,2.6-12.8c0.6-1.8,1.6-3.5,2.4-5.2c0.7-0.7,1.3-1.3,2-2c0.3,0,0.7,0,1,0
		c0.1,0.1,0.3,0.3,0.4,0.4c-1.5,2.7-3.2,5.3-4.4,8.1C76.6,25.2,75.5,29.1,74.2,32.9z"/>
	<path class="st17" d="M43.7,107.6c2.8-0.8,5.6-1.9,8.4-2.3c3.1-0.4,6.2-0.2,9.4-0.3C55.5,106.4,49.8,107.9,43.7,107.6z"/>
	<path class="st18" d="M80.3,92.1c-0.4-0.4-0.8-0.8-1.2-1.2c2-4.3,4-8.6,5.9-13c0-0.7,0-1.3,0.1-2c0.4,0,0.7,0,1.1-0.1
		C87.6,82.5,83.3,87,80.3,92.1z"/>
	<path class="st8" d="M86.3,75.8c-0.4,0-0.7,0-1.1,0.1c0.3-2,0.5-4,0.8-6C86.1,71.9,86.2,73.9,86.3,75.8z"/>
	<path class="st4" d="M24.9,31.9c-3.3-0.3-6.7-0.7-10-1C18.2,31.2,21.6,31.6,24.9,31.9z"/>
	<path class="st16" d="M82.1,11.8c0.1-0.9,0.2-1.8,0.2-2.8c0.5,0,1.1,0,1.6,0c-0.4,1.4-0.9,2.9-1.3,4.3c-0.1-0.1-0.3-0.3-0.4-0.4
		C82.2,12.5,82.1,12.2,82.1,11.8z"/>
	<path class="st1" d="M83.9,9c-0.5,0-1.1,0-1.6,0c0,0-0.3-0.3-0.3-0.3c0-0.6,0.1-1.2,0.1-1.8c0.6,0,1.2,0,1.8,0.1
		C84,7.7,83.9,8.4,83.9,9z"/>
	<path class="st4" d="M15,30.9c-0.7,0.4-1.3,0.7-2,1.1C13.6,31.6,14.3,31.2,15,30.9z"/>
	<path class="st13" d="M1.2,78.9c0.3,0.4,0.5,0.8,0.8,1.1C1.8,79.7,1.5,79.3,1.2,78.9z"/>
	<path class="st6" d="M3.1,66.4c-0.3,0.5-0.7,1-1,1.5C2.4,67.4,2.7,66.9,3.1,66.4z"/>
	<path class="st19" d="M37.7,91.9c-0.7-0.7-1.3-1.3-2-2c2.3-1.1,4.7-2.2,7-3.3c-1.3-2.4-2.2-4.1-3-5.7c3-1.7,2.8-4.2,2-7
		c0.7,0,1.3,0,2,0c3.5,2.8,6.6,7.6,11.7,5.8c6.7-2.4,13.2-5.5,19.4-9c2.7-1.5,2.7-4.6,1.6-8c-2.7-8-9.9-14.2-9.5-23.5
		c0-0.9-1.8-1.9-2.8-2.9c-0.2,1.3-1,2.7-0.7,3.7c1.1,3.4,0.6,5.1-3.3,5c-0.9,0-1.8,0.6-2.6,0.9c-0.7,0-1.3,0-2,0c0-0.7,0-1.3,0-2
		c1.5-0.4,3-0.8,4.5-1.2c-0.9-8.4,1.3-14.1,8.4-10.8c0.7,2,1.3,4,2,6c-0.1,1.5-0.7,3.3-0.2,4.5c2.6,5.9,5.3,11.7,8.4,17.3
		c2.1,3.8,2.7,7,0.4,11c-2.9,5.1-7.2,8.2-12.4,10C56.7,83.9,48.6,91.5,37.7,91.9z"/>
	<path class="st7" d="M37.7,91.9c10.9-0.4,19-8,28.9-11.2c5.2-1.7,9.5-4.9,12.4-10c2.3-4,1.7-7.3-0.4-11c-3.1-5.6-5.8-11.4-8.4-17.3
		c-0.5-1.2,0.1-3,0.2-4.5c4.1,8.3,8.7,16.4,12.1,25c2.3,5.8-2.3,17.3-8.6,19.9c-5.1,2.1-9.9,4.9-14.9,7.4
		C52.1,93.5,45,93.9,37.7,91.9z"/>
	<path class="st8" d="M85.1,77.9c-2,4.3-4,8.6-5.9,13c-7.9,8.7-18.6,10.4-29.4,12.1c-4,0.6-8.1,1.5-12.1,1.7c-2.3,0.1-4.6-1-7-1.5
		c0.7-0.4,1.3-0.8,2-1.2c0.2,0,0.4,0.1,0.5,0c7.1-4.8,15.6-2.8,23.1-5.1c9.8-3.1,19.2-7.2,25.3-16.5C82.4,79.2,83.9,78.7,85.1,77.9z
		"/>
	<path class="st20" d="M39.7,80.9c0.9,1.7,1.8,3.3,3,5.7c-2.4,1.1-4.7,2.2-7,3.3c-1,0-2,0-2.9,0c-2-0.2-4.1-0.4-6.1-0.6
		c-0.7-0.4-1.4-0.7-2.2-1.1c-0.6-0.7-1.2-1.4-1.8-2.1c0,0,0,0,0,0c-0.6-1.4-1.2-2.8-1.7-4.1c2-1.3,3.9-2.7,5.9-4c2,0,4,0,5.9,0
		c1.3,0.6,2.6,1.3,4,1.9C37.7,80.2,38.7,80.6,39.7,80.9z"/>
	<path class="st7" d="M68.4,31.9c-7.1-3.3-9.2,2.4-8.4,10.8c-1.4,0.4-3,0.8-4.5,1.2c-0.7,0-1.3,0-2,0c0-0.7,0-1.3,0-2
		c1.3-2.7,2.6-5.3,4-8c0.3-1,0.7-2,1-3c0.6-0.3,1.2-0.4,1.7-0.8c1.5-1.3,2.8-2.7,4.3-4C65.7,28,67.1,30,68.4,31.9z"/>
	<path class="st21" d="M82.2,6.9c0,0.6-0.1,1.2-0.1,1.8c-1.3,0.4-2.5,0.8-3.8,1.2c-1.7,0.5-3.3,1-5,1.4c-1.4,0.3-2.9,0.3-4.3,0.5
		c0.3-1.9-0.1-4.8,1-5.6c1.9-1.3,4.7-1.8,7.1-1.7C78.8,4.6,80.5,6.1,82.2,6.9z"/>
	<path class="st22" d="M32.7,101.9c-0.7,0.4-1.3,0.8-2,1.2c-2-0.1-3.9-0.1-5.9-0.2c-0.3-0.7-0.7-1.3-1-2c0.3-2,0.7-4,1-6
		c2.6,0.7,5.3,1.4,7.9,2.1C32.7,98.6,32.7,100.3,32.7,101.9z"/>
	<path class="st6" d="M32.7,97c-2.6-0.7-5.3-1.4-7.9-2.1c0-0.6-0.1-1.1-0.1-1.7c0.9-1,1.9-2,2.8-3c1.7,0.3,3.4,0.6,5.1,0.8
		c0.8,1.1,1.6,2.2,2.6,3.7C34.5,95.4,33.6,96.2,32.7,97z"/>
	<path class="st7" d="M32.7,91c-1.7-0.3-3.4-0.6-5.1-0.8c-0.3-0.3-0.6-0.6-0.9-0.9c2,0.2,4.1,0.4,6.1,0.6
		C32.8,90.3,32.7,90.7,32.7,91z"/>
	<path class="st15" d="M82.1,11.8c0,0.4,0.1,0.8,0.1,1.1c-0.3,0-0.7,0-1,0C81.5,12.5,81.8,12.2,82.1,11.8z"/>
	<path class="st23" d="M26.7,70c-0.9-0.7-1.9-1.4-2.8-2.1c-0.7-1.3-1.1-2.9-2.2-3.8c-3.2-2.6-6.7-4.9-10.5-7.8
		c3.9-3.5,6.8-2.9,9.7-0.4c-2.6,4.3-1.5,5.9,4.9,7c0,0,0.1,0,0.1,0c1,2.3,2,4.6,3,6.9C28.2,69.9,27.4,70,26.7,70z"/>
	<path class="st7" d="M25.8,62.9c-6.4-1.2-7.5-2.7-4.9-7c1.3-0.3,2.7-0.5,4-0.8c1,0,2.1-0.1,3.1-0.1c0.9,0.2,1.8,0.5,2.8,0.7
		C29.2,58.2,27.5,60.5,25.8,62.9z"/>
	<path class="st20" d="M28.8,48c0-1,0-2,0-3c0.3-2.3,0.7-4.7,1-7c0.7,0,1.4,0,2-0.1c1,0,1.9,0.1,2.9,0.1c1.7,1.6,3.3,3.3,5,4.9
		c0,0.7,0,1.3,0,2c-7.1-3.8-7.8-3.5-7.9,3c-0.7,0-1.4,0-2.2,0l-0.4,0L28.8,48z"/>
	<path class="st7" d="M39.7,42.9c-1.7-1.6-3.3-3.3-5-4.9c5.6,0.7,11.2,1.3,16.8,2c0,0.7,0,1.3,0,2C47.6,42.3,43.6,42.6,39.7,42.9z"
		/>
	<path class="st1" d="M51.5,41.9c0-0.7,0-1.3,0-2c2-2,4-4,5.9-6c-1.3,2.7-2.6,5.3-4,8C52.9,41.9,52.2,41.9,51.5,41.9z"/>
	<path class="st7" d="M31.8,37.9c-0.7,0-1.4,0-2,0.1c0-0.7,0-1.3,0-2c0,0,0,0,0,0C30.5,36.6,31.2,37.2,31.8,37.9z"/>
	<path class="st20" d="M25.8,62.9c1.7-2.4,3.3-4.8,5-7.1c0.6,0,1.3,0,1.9,0c1.8,0.2,3.5,0.4,5.3,0.7c-0.1-1.2-0.2-2.4-0.3-3.5
		c2.4,0.1,6.2,0,4.2,3.5c-1.4,2.6-5.3,4.1-8.4,5.3C31.2,62.7,28.4,62.6,25.8,62.9L25.8,62.9z"/>
	<path class="st7" d="M37.7,52.9c0.1,1.2,0.2,2.4,0.3,3.5c-1.8-0.2-3.5-0.4-5.3-0.7c-0.7-1.9-1.3-3.9-2-5.8c0.4,0,0.7-0.1,1.1-0.1
		c0.3,0,0.6,0,1,0c0.3,0.3,0.7,0.7,1,1c1,0.7,2,1.3,3,2C37,52.9,37.4,52.9,37.7,52.9z"/>
	<path class="st24" d="M31.8,49.8c-0.4,0-0.7,0.1-1.1,0.1c-0.4-0.7-0.7-1.3-1.1-2c0.7,0,1.4,0,2.1,0C31.8,48.6,31.8,49.2,31.8,49.8z
		"/>
	<path class="st19" d="M29.8,35.9c0,0.7,0,1.3,0,2c-0.3,2.3-0.7,4.7-1,7c-1.6-2.2-3.2-4.4-4.8-6.6C25.9,37.6,27.8,36.7,29.8,35.9z"
		/>
	<path class="st25" d="M24.7,93.2c0,0.6,0.1,1.1,0.1,1.7c-0.3,2-0.7,4-1,6c-4-2.4-8-4.8-12-7.2c0.2-0.5,0.4-0.9,0.5-1.4
		c1.2-0.2,2.4-0.3,3.6-0.5c2,0.4,3.9,0.7,5.9,1.1C22.8,93,23.8,93.1,24.7,93.2z"/>
	<path class="st6" d="M21.9,92.9c-2-0.4-3.9-0.7-5.9-1.1c-3.6-2.3-7.3-4.6-10.9-7c0-0.4,0-0.7,0-1.1C10.7,86.9,16.3,89.9,21.9,92.9z
		"/>
	<path class="st6" d="M5.1,91.9c-0.6-0.7-1.3-1.3-1.9-2C3.8,90.6,4.4,91.3,5.1,91.9z"/>
	<path class="st6" d="M22.7,86.1c0.6,0.7,1.2,1.4,1.8,2.1C23.9,87.5,23.3,86.8,22.7,86.1z"/>
	<path class="st23" d="M26.8,77.9c-2,1.3-3.9,2.7-5.9,4c-0.4,0-0.7,0-1.1,0c0-2,0-4,0-6c1.3,0,2.6,0.1,3.9,0.1c1,0,2,0,2.9,0
		C26.8,76.7,26.8,77.3,26.8,77.9z"/>
	<path class="st6" d="M23.8,76c-1.3,0-2.6-0.1-3.9-0.1c-4-2-8.2-3.8-12-6c-1.3-0.7-1.9-2.6-2.8-4c6.3,3,12.5,6,18.8,9
		C23.8,75.3,23.8,75.7,23.8,76z"/>
	<path class="st8" d="M26.8,77.9c0-0.6,0-1.3-0.1-1.9c1.2-0.2,2.4-0.4,4.2-0.7c-1.7-2.1-2.9-3.7-4.2-5.3c0.7,0,1.4-0.1,2.1-0.1
		c0.6,0,1.2,0.1,1.9,0.1c0.1,2.8,4.8,4.4,2,8C30.8,78,28.8,77.9,26.8,77.9z"/>
	<path class="st26" d="M57.5,45.9c0.9-0.3,1.8-1,2.6-0.9c3.9,0.1,4.4-1.6,3.3-5c-0.4-1,0.4-2.5,0.7-3.7c1,1,2.8,2,2.8,2.9
		c-0.4,9.3,6.8,15.5,9.5,23.5c1.1,3.4,1.1,6.5-1.6,8c-6.2,3.5-12.7,6.7-19.4,9c-5.1,1.8-8.2-3-11.7-5.8c1.8,0,3.7-0.3,5.4,0.1
		c7.6,2,14.4,0.7,20.9-3.8c3.9-2.7,4.8-5.4,2.3-9.4c-1.3-2.1-2.2-4.4-3.3-6.6c-1.8-3.6-4.3-6.1-8.7-6.3
		C59.3,47.8,58.4,46.6,57.5,45.9z"/>
	<path class="st27" d="M57.5,45.9c0.9,0.7,1.8,1.9,2.8,1.9c4.3,0.2,6.9,2.7,8.7,6.3c1.1,2.2,2,4.6,3.3,6.6c2.5,4.1,1.5,6.7-2.3,9.4
		c-6.5,4.6-13.3,5.9-20.9,3.8c-1.7-0.5-3.6-0.1-5.4-0.1c-0.7,0-1.3,0-2,0c-0.7-0.7-1.3-1.3-2-2c3.4-3.8,7.4-0.8,10.8-0.3
		c6.5,1,12-0.8,17-4.5c1-0.7,1.7-3,1.3-4.1c-2.2-6.2-5.2-11.9-12.6-13c-4.5-0.7-9-1.3-13.5-2c3.3-0.7,6.6-1.3,9.9-2c1,0,2,0,3,0
		C56.2,45.9,56.8,45.9,57.5,45.9z"/>
	<path class="st28" d="M39.7,71.9c0.7,0.7,1.3,1.3,2,2c0.8,2.8,1,5.3-2,7c-1-0.3-2-0.7-3-1c-0.3-3.3-0.7-6.6-1-10
		C37,70.6,38.4,71.3,39.7,71.9z"/>
	<path class="st26" d="M55.5,45.9c-1,0-2,0-3,0c0.3-0.7,0.7-1.3,1-2c0.7,0,1.3,0,2,0C55.5,44.6,55.5,45.3,55.5,45.9z"/>
	<path class="st23" d="M35.7,70c0.3,3.3,0.7,6.6,1,10c-1.3-0.6-2.6-1.3-4-1.9c2.8-3.6-1.9-5.2-2-8C32.4,70,34.1,70,35.7,70z"/>
	<path class="st19" d="M53.5,43.9c-0.3,0.7-0.7,1.3-1,2c-3.3,0.7-6.6,1.3-9.9,2c-0.7,0-1.3,0-2,0c-0.3-1-0.7-2-1-3c0-0.7,0-1.3,0-2
		c4-0.3,7.9-0.7,11.9-1c0.7,0,1.3,0,2,0C53.5,42.6,53.5,43.3,53.5,43.9z"/>
	<path class="st24" d="M40.7,47.9c0.7,0,1.3,0,2,0c4.5,0.7,9,1.3,13.5,2c7.4,1.2,10.4,6.8,12.6,13c0.4,1.1-0.3,3.4-1.3,4.1
		c-5,3.7-10.5,5.5-17,4.5c-3.4-0.5-7.3-3.5-10.8,0.3c-1.3-0.6-2.7-1.3-4-1.9c-1.7,0-3.3,0-5,0c-0.6,0-1.2-0.1-1.9-0.1
		c-1-2.3-2-4.6-3-6.9c2.6-0.4,5.4-0.2,7.7-1.2c3.1-1.3,6.9-2.7,8.4-5.3c2-3.5-1.8-3.4-4.2-3.5c-0.3,0-0.7,0-1,0c0-1,0-2,0-3
		C38,49.3,39.4,48.6,40.7,47.9z M46.9,67.9c3-0.4,6.4-0.5,9.7-1.3c6-1.4,7.3-5.8,2.8-10.1c-2.7-2.5-6.2-4.1-9.5-6
		c-3-1.7-4.2,0.4-5,2.8c-0.9,2.9-1.5,5.9-2.5,8.7C40.9,66.4,41.8,67.9,46.9,67.9z"/>
	<path class="st29" d="M40.7,47.9c-1.3,0.7-2.7,1.4-4,2c-0.3,0-0.7,0-1,0c-1,0-2,0-3-0.1c-0.3,0-0.7,0-1,0c0-0.6,0-1.3,0-1.9
		c0.1-6.6,0.8-6.8,7.9-3C40,45.9,40.4,46.9,40.7,47.9z"/>
	<path class="st20" d="M35.7,49.9c0.3,0,0.7,0,1,0c0,1,0,2,0,3c-1-0.7-2-1.3-3-2C34.4,50.6,35.1,50.3,35.7,49.9z"/>
	<path class="st24" d="M35.7,49.9c-0.7,0.3-1.3,0.7-2,1c-0.3-0.3-0.7-0.7-1-1C33.8,49.9,34.7,49.9,35.7,49.9z"/>
	<path class="st21" d="M46.9,67.9c-5.1-0.1-6-1.5-4.4-5.8c1-2.8,1.6-5.8,2.5-8.7c0.8-2.4,2-4.5,5-2.8c3.2,1.8,6.8,3.5,9.5,6
		c4.5,4.2,3.2,8.7-2.8,10.1C53.3,67.4,49.9,67.6,46.9,67.9z"/>
</g>
</svg>
